HIERARCHY
ROOT Hips
{
	OFFSET 0.00000 0.00000 0.00000
	CHANNELS 6 Xposition Yposition Zposition Zrotation Yrotation Xrotation 
	JOINT LHipJoint
	{
		OFFSET 0 0 0
		CHANNELS 3 Zrotation Yrotation Xrotation
		JOINT LeftUpLeg
		{
			OFFSET 1.77779 -1.88989 0.48267
			CHANNELS 3 Zrotation Yrotation Xrotation
			JOINT LeftLeg
			{
				OFFSET 2.53442 -6.96327 0.00000
				CHANNELS 3 Zrotation Yrotation Xrotation
				JOINT LeftFoot
				{
					OFFSET 2.71068 -7.44755 0.00000
					CHANNELS 3 Zrotation Yrotation Xrotation
					JOINT LeftToeBase
					{
						OFFSET 0.17992 -0.49431 2.22524
						CHANNELS 3 Zrotation Yrotation Xrotation
						End Site
						{
							OFFSET 0.00000 -0.00000 1.14687
						}
					}
				}
			}
		}
	}
	JOINT RHipJoint
	{
		OFFSET 0 0 0
		CHANNELS 3 Zrotation Yrotation Xrotation
		JOINT RightUpLeg
		{
			OFFSET -1.58469 -1.88989 0.48267
			CHANNELS 3 Zrotation Yrotation Xrotation
			JOINT RightLeg
			{
				OFFSET -2.60386 -7.15404 0.00000
				CHANNELS 3 Zrotation Yrotation Xrotation
				JOINT RightFoot
				{
					OFFSET -2.73334 -7.50979 0.00000
					CHANNELS 3 Zrotation Yrotation Xrotation
					JOINT RightToeBase
					{
						OFFSET -0.25618 -0.70384 2.21822
						CHANNELS 3 Zrotation Yrotation Xrotation
						End Site
						{
							OFFSET -0.00000 -0.00000 1.16381
						}
					}
				}
			}
		}
	}
	JOINT LowerBack
	{
		OFFSET 0 0 0
		CHANNELS 3 Zrotation Yrotation Xrotation
		JOINT Spine
		{
			OFFSET 0.03410 2.01612 -0.22230
			CHANNELS 3 Zrotation Yrotation Xrotation
			JOINT Spine1
			{
				OFFSET 0.03465 2.03012 0.00937
				CHANNELS 3 Zrotation Yrotation Xrotation
				JOINT Neck
				{
					OFFSET 0 0 0
					CHANNELS 3 Zrotation Yrotation Xrotation
					JOINT Neck1
					{
						OFFSET -0.00219 1.70459 0.20857
						CHANNELS 3 Zrotation Yrotation Xrotation
						JOINT Head
						{
							OFFSET 0.02518 1.72339 -0.22179
							CHANNELS 3 Zrotation Yrotation Xrotation
							End Site
							{
								OFFSET 0.00282 1.74122 -0.09823
							}
						}
					}
				}
				JOINT LeftShoulder
				{
					OFFSET 0 0 0
					CHANNELS 3 Zrotation Yrotation Xrotation
					JOINT LeftArm
					{
						OFFSET 3.36358 1.00547 -0.37661
						CHANNELS 3 Zrotation Yrotation Xrotation
						JOINT LeftForeArm
						{
							OFFSET 5.06507 -0.00000 0.00000
							CHANNELS 3 Zrotation Yrotation Xrotation
							JOINT LeftHand
							{
								OFFSET 3.60196 -0.00000 0.00000
								CHANNELS 3 Zrotation Yrotation Xrotation
								JOINT LeftFingerBase
								{
									OFFSET 0 0 0
									CHANNELS 3 Zrotation Yrotation Xrotation
									JOINT LeftHandIndex1
									{
										OFFSET 0.45035 -0.00000 0.00000
										CHANNELS 3 Zrotation Yrotation Xrotation
										End Site
										{
											OFFSET 0.36308 -0.00000 0.00000
										}
									}
								}
								JOINT LThumb
								{
									OFFSET 0 0 0
									CHANNELS 3 Zrotation Yrotation Xrotation
									End Site
									{
										OFFSET 0.36862 -0.00000 0.36862
									}
								}
							}
						}
					}
				}
				JOINT RightShoulder
				{
					OFFSET 0 0 0
					CHANNELS 3 Zrotation Yrotation Xrotation
					JOINT RightArm
					{
						OFFSET -3.50159 0.80383 -0.71526
						CHANNELS 3 Zrotation Yrotation Xrotation
						JOINT RightForeArm
						{
							OFFSET -5.36394 -0.00000 0.00000
							CHANNELS 3 Zrotation Yrotation Xrotation
							JOINT RightHand
							{
								OFFSET -3.58035 -0.00000 0.00000
								CHANNELS 3 Zrotation Yrotation Xrotation
								JOINT RightFingerBase
								{
									OFFSET 0 0 0
									CHANNELS 3 Zrotation Yrotation Xrotation
									JOINT RightHandIndex1
									{
										OFFSET -0.66375 -0.00000 0.00000
										CHANNELS 3 Zrotation Yrotation Xrotation
										End Site
										{
											OFFSET -0.53513 -0.00000 0.00000
										}
									}
								}
								JOINT RThumb
								{
									OFFSET 0 0 0
									CHANNELS 3 Zrotation Yrotation Xrotation
									End Site
									{
										OFFSET -0.54330 -0.00000 0.54330
									}
								}
							}
						}
					}
				}
			}
		}
	}
}
MOTION
Frames: 12
Frame Time: .0083333
-1.6954 17.1022 -30.0874 0 0 0 0 0 0 -21 0 0 0 0 0 0 0 0 0 0 0 0 0 0 21 0 0 0 0 0 0 0 0 0 0 0 0 0 0 0 0 0 0 0 0 0 0 -16 0 0 21 0 0 11 0 0 0 -8 0 0 0 0 0 0 0 0 0 0 0 0 0 0 0 0 0 0 0 0 8 0 0 0 0 0 0 0 0 0 0 0 0 0 0 0 0 0
-1.6954 17.1022 -30.0874 -3.8874 -5.2989 3.2024 0.0000 0.0000 0.0000 -13.1668 3.4646 -15.9283 24.3661 19.5367 102.8610 1.2210 -7.7972 25.0372 0.4553 4.3286 12.0031 0.0000 0.0000 0.0000 28.8189 16.8884 -26.4897 -8.7581 -16.6495 55.2498 -1.0932 -2.1033 -20.6134 -0.0386 1.2681 -3.4868 1.9990 -0.4636 17.2889 2.6859 0.0110 1.0902 1.7598 -0.0185 -8.5385 -2.3082 -2.4125 -18.3079 1.2157 -2.9040 15.2547 0.4332 -1.3967 7.7688 -0.0000 -0.0000 0.0000 -86.8699 14.9135 42.3468 83.0471 -59.8165 -53.9823 -0.0000 0.0000 -33.9425 29.9038 0.2666 0.1533 -7.1250 0.0000 -0.0000 2.6396 30.2818 -0.9493 -0.0000 -0.0000 0.0000 87.4299 -18.0050 41.1734 -103.6003 59.2894 -71.7501 0.0000 -0.0000 -18.0501 -25.4822 37.5779 -16.2063 7.1250 -0.0000 -0.0000 4.5969 10.3496 5.3637
-1.7072 17.0260 -29.6320 -4.4409 -4.6627 3.5255 0.0000 0.0000 0.0000 -11.3373 2.7809 -19.6116 25.4929 19.2607 106.2528 1.0763 -8.2253 24.1959 0.3651 3.8812 10.7427 0.0000 0.0000 0.0000 29.8418 16.5624 -25.1495 -8.9030 -16.7449 55.7540 -1.2835 -2.9456 -22.6435 -0.0728 1.7403 -4.7885 1.7690 -0.7738 17.5848 3.5425 -0.3190 0.2457 2.9330 -0.1418 -9.6229 -3.3888 -2.1553 -16.0880 1.2719 -2.3572 14.9367 0.7121 -1.2048 7.2875 -0.0000 -0.0000 0.0000 -88.5996 17.1303 40.9492 79.8766 -59.6092 -51.2444 -0.0000 0.0000 -33.3079 30.8784 -1.7271 -1.0325 -7.1250 0.0000 -0.0000 3.3218 27.9625 -1.3786 -0.0000 -0.0000 0.0000 85.5366 -17.2278 43.3848 -104.9595 59.1373 -72.9177 0.0000 -0.0000 -18.2365 -25.2329 37.6964 -16.0753 7.1250 -0.0000 -0.0000 4.7517 10.4042 5.5491
-1.7094 16.9518 -29.1750 -4.2261 -4.1851 3.6410 0.0000 0.0000 0.0000 -10.6913 2.1876 -23.0056 26.3814 18.9943 108.9636 0.9311 -8.6768 23.3351 0.1202 2.2355 6.1569 0.0000 0.0000 0.0000 30.0297 16.0880 -23.7778 -9.0208 -16.8211 56.1620 -1.4400 -3.9351 -24.3831 -0.1572 2.5544 -7.0407 1.6119 -0.6671 17.7400 3.5080 -0.1990 0.0711 2.9633 -0.0754 -9.9077 -3.3857 -2.2867 -16.2426 1.3476 -2.5471 15.1799 0.7133 -1.2884 7.3994 0.0000 0.0000 0.0000 -88.6293 18.0666 40.8952 77.6335 -59.4142 -49.3114 -0.0000 0.0000 -33.1142 30.4237 -5.6521 -3.3102 -7.1250 0.0000 -0.0000 2.7496 23.4340 -1.4309 0.0000 0.0000 0.0000 85.4347 -14.7619 44.1174 -105.8822 59.0251 -73.7093 0.0000 -0.0000 -18.5568 -25.0843 37.7181 -15.9802 7.1250 -0.0000 -0.0000 4.8338 10.3876 5.6444
-1.7083 16.8836 -28.7268 -3.9413 -4.2916 3.7491 0.0000 0.0000 0.0000 -10.3135 2.1832 -26.3137 27.1185 18.7389 111.2430 0.7069 -9.1849 21.7614 0.0043 0.4251 1.1682 0.0000 0.0000 0.0000 30.1132 15.9111 -21.9907 -9.0651 -16.8494 56.3150 -1.5605 -4.4868 -25.5781 -0.2010 2.8869 -7.9640 1.6347 -0.2690 17.6439 3.0870 0.2794 0.2734 2.3581 0.1377 -9.6437 -2.7946 -2.5348 -17.0860 1.5038 -3.0312 15.1354 0.6055 -1.4646 7.5343 -0.0000 -0.0000 0.0000 -87.6950 18.5398 41.4536 76.8299 -59.3343 -48.6198 -0.0000 0.0000 -32.9392 29.8510 -8.2078 -4.6838 -7.1250 0.0000 -0.0000 2.1508 20.5407 -1.2603 -0.0000 -0.0000 0.0000 86.0883 -12.3954 44.3511 -108.0112 58.7380 -75.5321 0.0000 -0.0000 -18.4611 -25.5104 36.8659 -15.9760 7.1250 -0.0000 -0.0000 4.4357 9.6376 5.1298
-1.7068 16.8411 -28.2713 -3.6948 -4.4400 3.8924 0.0000 0.0000 0.0000 -10.0127 2.1118 -29.6966 27.6567 18.5320 112.9270 0.4737 -9.4320 19.6757 0.0405 -1.2995 -3.5734 0.0000 0.0000 0.0000 30.2051 15.7046 -19.9296 -9.0163 -16.8182 56.1466 -1.6649 -4.7347 -26.4643 -0.1691 2.6490 -7.3031 1.3958 0.0608 17.3344 2.9387 0.6362 0.4408 2.2350 0.3140 -9.2953 -2.7155 -2.7053 -17.6217 1.6813 -3.3013 15.1392 0.6138 -1.5676 7.6354 -0.0000 -0.0000 0.0000 -87.2789 19.3369 41.8265 77.0301 -59.3547 -48.7921 -0.0000 0.0000 -32.6349 30.0871 -6.4803 -3.7412 -7.1250 0.0000 -0.0000 2.4464 22.5031 -1.3250 -0.0000 -0.0000 0.0000 86.1254 -10.3081 44.8155 -110.9516 58.2746 -78.0395 0.0000 -0.0000 -18.1768 -25.9022 36.6046 -16.1495 7.1250 -0.0000 -0.0000 4.1754 9.4749 4.8176
-1.7032 16.8486 -27.7754 -3.8134 -4.5247 4.1500 0.0000 0.0000 0.0000 -9.3023 2.1292 -32.7996 27.9393 18.4162 113.8191 0.2582 -10.0928 17.9413 0.1270 -2.2971 -6.3275 0.0000 0.0000 0.0000 30.7300 15.3648 -17.8766 -8.8683 -16.7222 55.6335 -1.7314 -5.3949 -27.2865 -0.2132 2.9728 -8.2030 1.4281 0.2359 16.8900 3.0493 0.8738 0.3420 2.2761 0.4293 -9.1627 -2.8904 -2.7566 -17.4537 1.7745 -3.3491 15.1585 0.6691 -1.5926 7.6189 -0.0000 -0.0000 0.0000 -87.2735 20.8381 41.9682 77.9867 -59.4476 -49.6155 -0.0000 0.0000 -32.7347 31.0438 -1.4688 -0.8839 -7.1250 0.0000 -0.0000 3.4625 28.2594 -1.4128 -0.0000 -0.0000 0.0000 85.7991 -7.8643 45.6809 -112.9885 57.9058 -79.7686 0.0000 -0.0000 -18.4752 -25.1119 36.9501 -15.7345 7.1250 -0.0000 -0.0000 4.6630 9.6201 5.3930
-1.7009 16.8833 -27.3070 -3.8981 -3.9152 4.1537 0.0000 0.0000 0.0000 -8.7482 1.2829 -35.6891 28.0621 18.3643 114.2083 0.1241 -10.7984 17.1075 0.0804 -1.8285 -5.0320 0.0000 0.0000 0.0000 31.2718 14.3224 -16.0493 -8.6616 -16.5850 54.9123 -1.7167 -6.4233 -27.7692 -0.4055 4.0879 -11.3242 1.6880 0.1279 17.2951 3.0549 0.8094 0.0476 2.1576 0.3877 -9.7104 -2.9783 -2.8389 -16.7822 1.9575 -3.4894 14.9028 0.7361 -1.6521 7.4276 -0.0000 0.0000 0.0000 -87.0151 22.7771 42.1259 80.0830 -59.6251 -51.4225 -0.0000 0.0000 -33.3840 31.5788 1.0799 0.6637 -7.1250 0.0000 -0.0000 3.9976 31.2325 -1.3483 -0.0000 0.0000 0.0000 85.6053 -6.6080 46.6551 -116.3092 57.2158 -82.5715 0.0000 -0.0000 -19.3465 -24.4481 36.6770 -15.1925 7.1250 -0.0000 -0.0000 4.9598 9.1762 5.7070
-1.6869 16.9140 -26.8357 -3.7776 -3.5896 4.2733 0.0000 0.0000 0.0000 -8.7204 0.5273 -38.4401 28.0424 18.3727 114.1457 -0.0145 -11.4645 16.1103 0.0416 -1.3160 -3.6188 0.0000 0.0000 0.0000 31.4198 13.4899 -14.1163 -8.4188 -16.4188 54.0576 -1.7478 -6.7069 -28.1486 -0.7332 5.4705 -15.2556 1.8802 0.1501 17.3910 2.8895 0.8708 -0.1014 1.8547 0.4029 -9.9251 -2.8914 -2.9867 -16.5053 2.0799 -3.7368 14.5927 0.7388 -1.7564 7.2854 -0.0000 -0.0000 0.0000 -86.5524 24.5233 42.3837 82.7823 -59.8022 -53.7535 -0.0000 0.0000 -34.1603 30.8687 0.2691 0.1609 -7.1250 0.0000 -0.0000 3.4021 30.2841 -1.2241 -0.0000 -0.0000 0.0000 85.8692 -4.6470 47.3250 -118.9885 56.5735 -84.8160 0.0000 -0.0000 -20.1434 -24.4912 36.6257 -15.2040 7.1250 -0.0000 -0.0000 4.9269 9.1353 5.6660
-1.6678 16.9419 -26.3580 -3.8728 -3.3252 4.4957 0.0000 0.0000 0.0000 -8.4935 -0.1692 -41.0709 27.9123 18.4275 113.7335 -0.1774 -12.3467 14.9903 0.0400 -1.2915 -3.5513 0.0000 0.0000 0.0000 31.7091 12.8644 -12.0185 -8.1158 -16.2038 52.9788 -1.8614 -5.8853 -28.4392 -0.8689 5.9433 -16.6200 2.3140 0.2825 17.2977 2.7544 1.1211 -0.2008 1.3973 0.4960 -9.9762 -2.8227 -3.2208 -16.8387 2.2581 -4.1005 14.8219 0.7392 -1.9057 7.4297 0.0000 0.0000 0.0000 -85.9090 25.8028 42.9907 84.8693 -59.9003 -55.5582 -0.0000 0.0000 -34.9123 30.3881 -0.2390 -0.1401 -7.1250 0.0000 -0.0000 3.0046 29.6963 -1.1229 0.0000 0.0000 0.0000 86.1500 -2.9710 47.4879 -122.0164 55.7482 -87.3312 0.0000 -0.0000 -20.3283 -24.7816 36.9931 -15.5252 7.1250 -0.0000 -0.0000 4.8457 9.5793 5.6029
-1.6436 16.9713 -25.8743 -3.8657 -3.2784 4.7202 0.0000 0.0000 0.0000 -8.4887 -0.8183 -43.6396 27.6400 18.5387 112.8747 -0.2172 -12.5464 14.6730 0.0002 0.0962 0.2643 0.0000 0.0000 0.0000 31.8449 12.2461 -9.9374 -7.8006 -15.9707 51.8414 -1.8474 -5.3503 -28.0543 -0.8837 5.9927 -16.7632 2.6792 0.5292 17.0765 2.5664 1.4964 -0.2871 0.8910 0.6506 -9.9345 -2.8085 -3.4633 -16.9220 2.4212 -4.4634 14.8631 0.7471 -2.0612 7.4708 -0.0000 -0.0000 0.0000 -85.2862 26.8254 43.5975 86.3647 -59.9500 -56.8522 -0.0000 0.0000 -35.4491 30.1411 -0.3906 -0.2268 -7.1250 0.0000 -0.0000 2.8053 29.5227 -1.0599 -0.0000 -0.0000 0.0000 86.4367 -1.5077 47.4256 -125.1184 54.7841 -89.8808 0.0000 -0.0000 -20.6170 -24.6760 37.0437 -15.4710 7.1250 -0.0000 -0.0000 4.9115 9.6037 5.6812
-1.6239 17.0699 -25.3797 -3.9645 -3.5473 4.7241 0.0000 0.0000 0.0000 -8.5486 -1.2113 -45.4833 27.0697 18.7569 111.0911 -0.2075 -12.3070 14.4170 0.0545 1.5071 4.1454 0.0000 0.0000 0.0000 32.0918 11.6386 -7.4544 -7.4108 -15.6683 50.4113 -1.6786 -5.1888 -26.8053 -0.9317 6.1487 -17.2164 3.0758 0.8877 17.3853 2.3621 2.0533 -0.4645 0.2985 0.8830 -10.2842 -2.7231 -3.7208 -16.7103 2.5363 -4.8623 14.8532 0.7283 -2.2377 7.4428 -0.0000 0.0000 0.0000 -84.6641 28.0693 43.9900 87.9343 -59.9839 -58.2111 -0.0000 0.0000 -35.8698 29.8553 0.2993 0.1718 -7.1250 0.0000 -0.0000 2.6022 30.3194 -0.9335 -0.0000 0.0000 0.0000 86.8347 -0.2895 47.2884 -128.0819 53.7404 -92.2865 0.0000 -0.0000 -20.9360 -24.4170 37.0555 -15.2996 7.1250 -0.0000 -0.0000 5.0503 9.5503 5.8390
